<?xml version="1.0" encoding="UTF-8"?>
<svg version="1.1" xmlns="http://www.w3.org/2000/svg" width="1909" height="460">
<path d="M0 0 C-0.33 2.31 -0.66 4.62 -1 7 C-2.485 7.495 -2.485 7.495 -4 8 C-4.33 8.99 -4.66 9.98 -5 11 C-5.66 11 -6.32 11 -7 11 C-7 11.66 -7 12.32 -7 13 C-8.485 13.495 -8.485 13.495 -10 14 C-11.34423339 15.65788785 -12.67618483 17.32576317 -14 19 C-15.66666667 20.33333333 -17.33333333 21.66666667 -19 23 C-19.66 23.825 -20.32 24.65 -21 25.5 C-23.10364186 28.12955233 -25.33886334 29.9529718 -28 32 C-28.53625 32.5775 -29.0725 33.155 -29.625 33.75 C-31 35 -31 35 -34 35 C-34.33 36.65 -34.66 38.3 -35 40 C-35.99 40 -36.98 40 -38 40 C-38 40.99 -38 41.98 -38 43 C-39.65 43.33 -41.3 43.66 -43 44 C-43.33 44.99 -43.66 45.98 -44 47 C-44.66 47 -45.32 47 -46 47 C-46.33 47.99 -46.66 48.98 -47 50 C-47.66 50 -48.32 50 -49 50 C-49.33 50.99 -49.66 51.98 -50 53 C-50.66 53 -51.32 53 -52 53 C-52.33 53.99 -52.66 54.98 -53 56 C-53.66 56 -54.32 56 -55 56 C-55 56.66 -55 57.32 -55 58 C-56.485 58.495 -56.485 58.495 -58 59 C-59.34423339 60.65788785 -60.67618483 62.32576317 -62 64 C-63.66666667 65.33333333 -65.33333333 66.66666667 -67 68 C-67.66 68.825 -68.32 69.65 -69 70.5 C-71.09467546 73.11834432 -73.37090459 74.93935765 -76 77 C-76.33 77.66 -76.66 78.32 -77 79 C-79.5625 79.625 -79.5625 79.625 -82 80 C-82.33 80.99 -82.66 81.98 -83 83 C-83.66 83 -84.32 83 -85 83 C-85.33 83.99 -85.66 84.98 -86 86 C-86.66 86 -87.32 86 -88 86 C-88.33 86.99 -88.66 87.98 -89 89 C-89.66 89 -90.32 89 -91 89 C-91.33 89.99 -91.66 90.98 -92 92 C-92.66 92 -93.32 92 -94 92 C-94.33 92.99 -94.66 93.98 -95 95 C-95.66 95 -96.32 95 -97 95 C-97.33 95.99 -97.66 96.98 -98 98 C-98.66 98 -99.32 98 -100 98 C-100.33 98.99 -100.66 99.98 -101 101 C-101.99 101 -102.98 101 -104 101 C-104 101.99 -104 102.98 -104 104 C-104.66 104 -105.32 104 -106 104 C-106 104.66 -106 105.32 -106 106 C-106.99 106 -107.98 106 -109 106 C-109.33 107.32 -109.66 108.64 -110 110 C-110.99 110 -111.98 110 -113 110 C-113 110.66 -113 111.32 -113 112 C-114.66215268 113.33895632 -116.32963607 114.67130142 -118 116 C-118.66 116.825 -119.32 117.65 -120 118.5 C-122.11937236 121.14921544 -124.21308087 123.07059445 -127 125 C-127.99 125 -128.98 125 -130 125 C-130.33 125.99 -130.66 126.98 -131 128 C-131.66 128 -132.32 128 -133 128 C-133.33 129.65 -133.66 131.3 -134 133 C-135.65 133.33 -137.3 133.66 -139 134 C-139.33 134.99 -139.66 135.98 -140 137 C-140.66 137 -141.32 137 -142 137 C-142.33 138.65 -142.66 140.3 -143 142 C-144.65 142.33 -146.3 142.66 -148 143 C-148.33 143.99 -148.66 144.98 -149 146 C-149.99 146 -150.98 146 -152 146 C-152 146.66 -152 147.32 -152 148 C-153.66215268 149.33895632 -155.32963607 150.67130142 -157 152 C-157.66 152.825 -158.32 153.65 -159 154.5 C-161.10319635 157.12899543 -163.37899543 158.90319635 -166 161 C-166.66 161.825 -167.32 162.65 -168 163.5 C-170.10319635 166.12899543 -172.37899543 167.90319635 -175 170 C-175.66 170.886875 -176.32 171.77375 -177 172.6875 C-179.30964106 175.35802248 -180.54899426 175.71241619 -184 176 C-184.33 176.99 -184.66 177.98 -185 179 C-185.66 179 -186.32 179 -187 179 C-187.33 179.99 -187.66 180.98 -188 182 C-188.66 182 -189.32 182 -190 182 C-190.33 182.99 -190.66 183.98 -191 185 C-191.66 185 -192.32 185 -193 185 C-193.33 185.99 -193.66 186.98 -194 188 C-194.66 188 -195.32 188 -196 188 C-196.33 188.99 -196.66 189.98 -197 191 C-197.66 191 -198.32 191 -199 191 C-199.33 191.99 -199.66 192.98 -200 194 C-200.99 194 -201.98 194 -203 194 C-203 194.99 -203 195.98 -203 197 C-203.66 197 -204.32 197 -205 197 C-205 197.66 -205 198.32 -205 199 C-205.99 199 -206.98 199 -208 199 C-208.33 200.32 -208.66 201.64 -209 203 C-209.99 203 -210.98 203 -212 203 C-212 203.66 -212 204.32 -212 205 C-212.66 205 -213.32 205 -214 205 C-214 205.99 -214 206.98 -214 208 C-214.99 208.33 -215.98 208.66 -217 209 C-217.61875 209.825 -218.2375 210.65 -218.875 211.5 C-221.27135597 214.31924232 -222.3967764 214.69973137 -226 215 C-226.33 215.99 -226.66 216.98 -227 218 C-227.66 218 -228.32 218 -229 218 C-229.33 218.99 -229.66 219.98 -230 221 C-230.66 221 -231.32 221 -232 221 C-232.33 221.99 -232.66 222.98 -233 224 C-233.66 224 -234.32 224 -235 224 C-235.33 224.99 -235.66 225.98 -236 227 C-236.66 227 -237.32 227 -238 227 C-238.33 227.99 -238.66 228.98 -239 230 C-240.65788785 231.34423339 -242.32576317 232.67618483 -244 234 C-245.36244796 235.64295195 -246.69864875 237.30824337 -248 239 C-250.40850794 241.93209662 -252.25184849 242.49349304 -256 243 C-256.33 243.99 -256.66 244.98 -257 246 C-257.66 246 -258.32 246 -259 246 C-259.33 246.99 -259.66 247.98 -260 249 C-260.66 249 -261.32 249 -262 249 C-262.33 249.99 -262.66 250.98 -263 252 C-263.66 252 -264.32 252 -265 252 C-265.33 252.99 -265.66 253.98 -266 255 C-266.66 255 -267.32 255 -268 255 C-268.33 255.99 -268.66 256.98 -269 258 C-269.66 258 -270.32 258 -271 258 C-271 258.66 -271 259.32 -271 260 C-271.99 260 -272.98 260 -274 260 C-274.33 261.32 -274.66 262.64 -275 264 C-275.66 264 -276.32 264 -277 264 C-277.33 264.99 -277.66 265.98 -278 267 C-278.66 267 -279.32 267 -280 267 C-280 267.66 -280 268.32 -280 269 C-280.99 269.33 -281.98 269.66 -283 270 C-283.33 270.99 -283.66 271.98 -284 273 C-284.99 273 -285.98 273 -287 273 C-287 273.66 -287 274.32 -287 275 C-288.66215268 276.33895632 -290.32963607 277.67130142 -292 279 C-292.66 279.886875 -293.32 280.77375 -294 281.6875 C-296.30964106 284.35802248 -297.54899426 284.71241619 -301 285 C-301.33 286.65 -301.66 288.3 -302 290 C-303.65 290.33 -305.3 290.66 -307 291 C-307.33 291.99 -307.66 292.98 -308 294 C-308.66 294 -309.32 294 -310 294 C-310.33 294.99 -310.66 295.98 -311 297 C-311.66 297 -312.32 297 -313 297 C-313 297.99 -313 298.98 -313 300 C-313.99 300 -314.98 300 -316 300 C-316.33 300.99 -316.66 301.98 -317 303 C-317.66 303 -318.32 303 -319 303 C-319 303.99 -319 304.98 -319 306 C-319.99 306 -320.98 306 -322 306 C-322.33 306.99 -322.66 307.98 -323 309 C-323.66 309 -324.32 309 -325 309 C-325.33 309.99 -325.66 310.98 -326 312 C-326.66 312 -327.32 312 -328 312 C-328 312.66 -328 313.32 -328 314 C-328.99 314.33 -329.98 314.66 -331 315 C-332.34423339 316.65788785 -333.67618483 318.32576317 -335 320 C-336.66666667 321.33333333 -338.33333333 322.66666667 -340 324 C-340.66 324.825 -341.32 325.65 -342 326.5 C-344.10319635 329.12899543 -346.37899543 330.90319635 -349 333 C-349.66 333.886875 -350.32 334.77375 -351 335.6875 C-353.30964106 338.35802248 -354.54899426 338.71241619 -358 339 C-358.33 339.99 -358.66 340.98 -359 342 C-359.66 342 -360.32 342 -361 342 C-361.33 342.99 -361.66 343.98 -362 345 C-362.66 345 -363.32 345 -364 345 C-364.33 345.99 -364.66 346.98 -365 348 C-365.66 348 -366.32 348 -367 348 C-367.33 348.99 -367.66 349.98 -368 351 C-368.66 351 -369.32 351 -370 351 C-370.33 351.99 -370.66 352.98 -371 354 C-371.66 354 -372.32 354 -373 354 C-373.33 354.99 -373.66 355.98 -374 357 C-374.99 357 -375.98 357 -377 357 C-377 357.66 -377 358.32 -377 359 C-377.66 359 -378.32 359 -379 359 C-379 359.99 -379 360.98 -379 362 C-379.99 362.33 -380.98 362.66 -382 363 C-382.33 363.99 -382.66 364.98 -383 366 C-383.99 366 -384.98 366 -386 366 C-386 366.66 -386 367.32 -386 368 C-386.66 368.33 -387.32 368.66 -388 369 C-388.33 369.99 -388.66 370.98 -389 372 C-389.99 372 -390.98 372 -392 372 C-392 372.66 -392 373.32 -392 374 C-393.65002828 375.35386936 -395.3174387 376.68678142 -397 378 C-397.33 378.66 -397.66 379.32 -398 380 C-400.5625 380.625 -400.5625 380.625 -403 381 C-403.33 381.99 -403.66 382.98 -404 384 C-404.66 384 -405.32 384 -406 384 C-406.33 384.99 -406.66 385.98 -407 387 C-407.66 387 -408.32 387 -409 387 C-409.33 387.99 -409.66 388.98 -410 390 C-410.66 390 -411.32 390 -412 390 C-412.33 390.99 -412.66 391.98 -413 393 C-413.66 393 -414.32 393 -415 393 C-415.33 393.99 -415.66 394.98 -416 396 C-416.66 396 -417.32 396 -418 396 C-418.33 396.99 -418.66 397.98 -419 399 C-419.66 399 -420.32 399 -421 399 C-421.33 399.99 -421.66 400.98 -422 402 C-422.66 402 -423.32 402 -424 402 C-424.33 402.99 -424.66 403.98 -425 405 C-425.99 405 -426.98 405 -428 405 C-428 405.66 -428 406.32 -428 407 C-429.66215268 408.33895632 -431.32963607 409.67130142 -433 411 C-433.99 412.2375 -433.99 412.2375 -435 413.5 C-437.10319635 416.12899543 -439.37899543 417.90319635 -442 420 C-443.36244796 421.64295195 -444.69864875 423.30824337 -446 425 C-447.5625 426.8125 -447.5625 426.8125 -449 428 C-449.99 428 -450.98 428 -452 428 C-452 428.99 -452 429.98 -452 431 C-456.22857143 435 -456.22857143 435 -460 435 C-460 435.99 -460 436.98 -460 438 C-460.99 438 -461.98 438 -463 438 C-463.33 438.99 -463.66 439.98 -464 441 C-464.66 441 -465.32 441 -466 441 C-466.33 441.99 -466.66 442.98 -467 444 C-467.66 444 -468.32 444 -469 444 C-469.33 444.99 -469.66 445.98 -470 447 C-470.66 447 -471.32 447 -472 447 C-472 447.66 -472 448.32 -472 449 C-472.99 449.33 -473.98 449.66 -475 450 C-476.35827971 451.64639965 -477.69254251 453.31295807 -479 455 C-479.66 455.33 -480.32 455.66 -481 456 C-481.33 456.99 -481.66 457.98 -482 459 C-484.75078884 459.91692961 -486.35948913 460.10886083 -489.1875 460.0625 C-490.445625 460.041875 -491.70375 460.02125 -493 460 C-493.33 458.35 -493.66 456.7 -494 455 C-494.66 455 -495.32 455 -496 455 C-496.33 453.35 -496.66 451.7 -497 450 C-497.66 450 -498.32 450 -499 450 C-499.33 447.69 -499.66 445.38 -500 443 C-500.66 443 -501.32 443 -502 443 C-502.33 441.35 -502.66 439.7 -503 438 C-503.66 438 -504.32 438 -505 438 C-505.33 435.69 -505.66 433.38 -506 431 C-506.66 431 -507.32 431 -508 431 C-508.33 429.35 -508.66 427.7 -509 426 C-509.66 426 -510.32 426 -511 426 C-511.33 425.01 -511.66 424.02 -512 423 C-512.66 422.67 -513.32 422.34 -514 422 C-514.59355614 419.35139573 -514.74209269 416.70802678 -515 414 C-515.66 414 -516.32 414 -517 414 C-517.33 412.02 -517.66 410.04 -518 408 C-518.66 408 -519.32 408 -520 408 C-520.33 407.01 -520.66 406.02 -521 405 C-521.66 404.67 -522.32 404.34 -523 404 C-523 402.35 -523 400.7 -523 399 C-523.99 399 -524.98 399 -526 399 C-526.33 396.69 -526.66 394.38 -527 392 C-527.66 392 -528.32 392 -529 392 C-529.33 390.02 -529.66 388.04 -530 386 C-530.66 386 -531.32 386 -532 386 C-532.33 384.02 -532.66 382.04 -533 380 C-533.66 380 -534.32 380 -535 380 C-535.33 378.02 -535.66 376.04 -536 374 C-536.66 374 -537.32 374 -538 374 C-538.33 372.02 -538.66 370.04 -539 368 C-539.66 368 -540.32 368 -541 368 C-541.33 366.02 -541.66 364.04 -542 362 C-542.66 362 -543.32 362 -544 362 C-544.33 360.35 -544.66 358.7 -545 357 C-545.66 357 -546.32 357 -547 357 C-547.33 355.02 -547.66 353.04 -548 351 C-548.66 351 -549.32 351 -550 351 C-550.495 349.515 -550.495 349.515 -551 348 C-551.66 347.67 -552.32 347.34 -553 347 C-553.59355614 344.35139573 -553.74209269 341.70802678 -554 339 C-554.66 339 -555.32 339 -556 339 C-556.495 337.515 -556.495 337.515 -557 336 C-557.66 335.67 -558.32 335.34 -559 335 C-559.59355614 332.35139573 -559.74209269 329.70802678 -560 327 C-560.99 326.67 -561.98 326.34 -563 326 C-563 325.01 -563 324.02 -563 323 C-563.66 323 -564.32 323 -565 323 C-565.33 321.02 -565.66 319.04 -566 317 C-566.66 317 -567.32 317 -568 317 C-568.33 315.02 -568.66 313.04 -569 311 C-569.66 311 -570.32 311 -571 311 C-571.33 309.02 -571.66 307.04 -572 305 C-572.66 305 -573.32 305 -574 305 C-574.33 303.02 -574.66 301.04 -575 299 C-575.66 299 -576.32 299 -577 299 C-577.33 297.35 -577.66 295.7 -578 294 C-578.66 294 -579.32 294 -580 294 C-580.33 292.02 -580.66 290.04 -581 288 C-581.66 288 -582.32 288 -583 288 C-584.85776765 284.86501708 -585.20140476 282.62528568 -585 279 C-585.66 279 -586.32 279 -587 279 C-587.33 277.02 -587.66 275.04 -588 273 C-588.66 273 -589.32 273 -590 273 C-590.33 271.02 -590.66 269.04 -591 267 C-591.66 267 -592.32 267 -593 267 C-593.495 265.515 -593.495 265.515 -594 264 C-594.66 263.67 -595.32 263.34 -596 263 C-596.625 259.9375 -596.625 259.9375 -597 257 C-597.66 257 -598.32 257 -599 257 C-599.33 255.02 -599.66 253.04 -600 251 C-600.66 251 -601.32 251 -602 251 C-602.33 249.02 -602.66 247.04 -603 245 C-603.66 245 -604.32 245 -605 245 C-605.33 243.02 -605.66 241.04 -606 239 C-606.66 239 -607.32 239 -608 239 C-608.33 237.02 -608.66 235.04 -609 233 C-609.66 233 -610.32 233 -611 233 C-611.33 231.68 -611.66 230.36 -612 229 C-612.66 229 -613.32 229 -614 229 C-614.33 227.02 -614.66 225.04 -615 223 C-615.66 223 -616.32 223 -617 223 C-617.33 221.02 -617.66 219.04 -618 217 C-618.66 217 -619.32 217 -620 217 C-620.33 215.02 -620.66 213.04 -621 211 C-621.66 211 -622.32 211 -623 211 C-623.33 209.02 -623.66 207.04 -624 205 C-624.66 205 -625.32 205 -626 205 C-626.495 202.525 -626.495 202.525 -627 200 C-627.66 200 -628.32 200 -629 200 C-629.33 198.02 -629.66 196.04 -630 194 C-630.66 194 -631.32 194 -632 194 C-632.33 192.02 -632.66 190.04 -633 188 C-633.66 188 -634.32 188 -635 188 C-635.33 186.02 -635.66 184.04 -636 182 C-636.66 182 -637.32 182 -638 182 C-638.33 180.02 -638.66 178.04 -639 176 C-639.66 176 -640.32 176 -641 176 C-641.33 174.02 -641.66 172.04 -642 170 C-642.66 170 -643.32 170 -644 170 C-644.33 169.01 -644.66 168.02 -645 167 C-645.66 166.67 -646.32 166.34 -647 166 C-647.625 162.9375 -647.625 162.9375 -648 160 C-648.66 160 -649.32 160 -650 160 C-650.33 158.02 -650.66 156.04 -651 154 C-651.66 154 -652.32 154 -653 154 C-653.33 152.02 -653.66 150.04 -654 148 C-654.66 148 -655.32 148 -656 148 C-656.33 146.02 -656.66 144.04 -657 142 C-657.66 142 -658.32 142 -659 142 C-659.87890625 135.84765625 -659.87890625 135.84765625 -660 134 C-659 133 -659 133 -655.9375 132.9375 C-654.968125 132.958125 -653.99875 132.97875 -653 133 C-653 132.34 -653 131.68 -653 131 C-648.05 130.67 -643.1 130.34 -638 130 C-638 129.34 -638 128.68 -638 128 C-632.94997778 126.96409801 -628.12583611 126.89748328 -623 127 C-623 126.34 -623 125.68 -623 125 C-618.05 124.67 -613.1 124.34 -608 124 C-608 123.34 -608 122.68 -608 122 C-603.03926578 120.67713754 -598.08888488 120.91106803 -593 121 C-593 120.34 -593 119.68 -593 119 C-588.05 118.67 -583.1 118.34 -578 118 C-578 117.34 -578 116.68 -578 116 C-572.94997778 114.96409801 -568.12583611 114.89748328 -563 115 C-563 114.34 -563 113.68 -563 113 C-558.05 112.505 -558.05 112.505 -553 112 C-553 111.34 -553 110.68 -553 110 C-547.06 109.67 -541.12 109.34 -535 109 C-535 108.34 -535 107.68 -535 107 C-529.06 106.505 -529.06 106.505 -523 106 C-523 105.34 -523 104.68 -523 104 C-516.93303301 103.22959149 -511.11485027 102.90293888 -505 103 C-505 102.34 -505 101.68 -505 101 C-499.06 100.505 -499.06 100.505 -493 100 C-493 99.34 -493 98.68 -493 98 C-484.585 97.505 -484.585 97.505 -476 97 C-476 96.34 -476 95.68 -476 95 C-472.68929162 93.99890485 -469.69915231 93.89643866 -466.25 93.9375 C-464.77273438 93.95103516 -464.77273438 93.95103516 -463.265625 93.96484375 C-462.51796875 93.97644531 -461.7703125 93.98804687 -461 94 C-461 93.34 -461 92.68 -461 92 C-455.91913204 91.15318867 -451.15171623 90.90961901 -446 91 C-446 90.34 -446 89.68 -446 89 C-440.94997778 87.96409801 -436.12583611 87.89748328 -431 88 C-431 87.34 -431 86.68 -431 86 C-425.91913204 85.15318867 -421.15171623 84.90961901 -416 85 C-416 84.34 -416 83.68 -416 83 C-412.68929162 81.99890485 -409.69915231 81.89643866 -406.25 81.9375 C-404.77273438 81.95103516 -404.77273438 81.95103516 -403.265625 81.96484375 C-402.51796875 81.97644531 -401.7703125 81.98804687 -401 82 C-401 81.34 -401 80.68 -401 80 C-396.05 79.505 -396.05 79.505 -391 79 C-391 78.34 -391 77.68 -391 77 C-385.06 76.67 -379.12 76.34 -373 76 C-373 75.34 -373 74.68 -373 74 C-367.06 73.505 -367.06 73.505 -361 73 C-361 72.34 -361 71.68 -361 71 C-355.06 70.67 -349.12 70.34 -343 70 C-343 69.34 -343 68.68 -343 68 C-338.9472484 67.01751476 -335.16138263 66.91840426 -331 67 C-331 66.34 -331 65.68 -331 65 C-325.06 64.67 -319.12 64.34 -313 64 C-313 63.34 -313 62.68 -313 62 C-310.47524538 60.73762269 -308.68799534 60.90143596 -305.875 60.9375 C-304.96492188 60.94652344 -304.05484375 60.95554688 -303.1171875 60.96484375 C-302.41851563 60.97644531 -301.71984375 60.98804688 -301 61 C-301 60.34 -301 59.68 -301 59 C-292.585 58.505 -292.585 58.505 -284 58 C-284 57.34 -284 56.68 -284 56 C-280.68929162 54.99890485 -277.69915231 54.89643866 -274.25 54.9375 C-273.26515625 54.94652344 -272.2803125 54.95554688 -271.265625 54.96484375 C-270.14414063 54.98224609 -270.14414063 54.98224609 -269 55 C-269 54.34 -269 53.68 -269 53 C-264.05 52.505 -264.05 52.505 -259 52 C-259 51.34 -259 50.68 -259 50 C-252.29980211 49.29867087 -245.73742646 48.88955039 -239 49 C-239 48.34 -239 47.68 -239 47 C-236.03 46.67 -233.06 46.34 -230 46 C-230 45.34 -230 44.68 -230 44 C-223.62694402 43.25492456 -217.41688675 42.89650183 -211 43 C-211 42.34 -211 41.68 -211 41 C-205.06 40.505 -205.06 40.505 -199 40 C-199 39.34 -199 38.68 -199 38 C-193.06 37.67 -187.12 37.34 -181 37 C-181 36.34 -181 35.68 -181 35 C-178.11788698 34.03929566 -176.30149956 33.89418117 -173.3125 33.9375 C-172.10013672 33.95103516 -172.10013672 33.95103516 -170.86328125 33.96484375 C-170.24839844 33.97644531 -169.63351562 33.98804688 -169 34 C-169 33.34 -169 32.68 -169 32 C-163.06 31.67 -157.12 31.34 -151 31 C-151 30.34 -151 29.68 -151 29 C-148.11788698 28.03929566 -146.30149956 27.89418117 -143.3125 27.9375 C-142.10013672 27.95103516 -142.10013672 27.95103516 -140.86328125 27.96484375 C-140.24839844 27.97644531 -139.63351562 27.98804687 -139 28 C-139 27.34 -139 26.68 -139 26 C-130.585 25.505 -130.585 25.505 -122 25 C-122 24.34 -122 23.68 -122 23 C-119.00519083 22.1276588 -116.36424089 21.89170234 -113.25 21.9375 C-112.45078125 21.94652344 -111.6515625 21.95554687 -110.828125 21.96484375 C-110.22484375 21.97644531 -109.6215625 21.98804687 -109 22 C-109 21.34 -109 20.68 -109 20 C-103.555 19.505 -103.555 19.505 -98 19 C-98 18.34 -98 17.68 -98 17 C-90.97195301 16.14626761 -84.07721931 15.87890689 -77 16 C-77 15.34 -77 14.68 -77 14 C-73.7 13.67 -70.4 13.34 -67 13 C-67 12.34 -67 11.68 -67 11 C-61.06 10.67 -55.12 10.34 -49 10 C-49 9.34 -49 8.68 -49 8 C-45.37 7.67 -41.74 7.34 -38 7 C-38 6.34 -38 5.68 -38 5 C-31.62694402 4.25492456 -25.41688675 3.89650183 -19 4 C-19 3.34 -19 2.68 -19 2 C-13.54969919 -0.7251504 -6.00027729 -0.13044081 0 0 Z " fill="#FE00DC" transform="translate(1909,0)"/>
<path d="M0 0 C2.20857055 0.14219564 4.41684987 0.28891847 6.625 0.4375 C7.85476562 0.51871094 9.08453125 0.59992188 10.3515625 0.68359375 C13.61532388 0.96663944 16.77943859 1.41038953 20 2 C20 2.66 20 3.32 20 4 C24.95 4.33 29.9 4.66 35 5 C35 5.66 35 6.32 35 7 C41.93 7.495 41.93 7.495 49 8 C49 8.66 49 9.32 49 10 C54.94 10.33 60.88 10.66 67 11 C67 11.66 67 12.32 67 13 C70.96 13.33 74.92 13.66 79 14 C79 14.66 79 15.32 79 16 C79.85271484 15.98259766 79.85271484 15.98259766 80.72265625 15.96484375 C85.60670484 15.90776806 90.18503965 16.18043228 95 17 C95 17.66 95 18.32 95 19 C98.96 19.33 102.92 19.66 107 20 C107 20.66 107 21.32 107 22 C107.58007812 21.98839844 108.16015625 21.97679688 108.7578125 21.96484375 C113.2998246 21.91237826 117.52713569 22.08248937 122 23 C122 23.66 122 24.32 122 25 C123.175625 24.979375 124.35125 24.95875 125.5625 24.9375 C129.47413467 24.93052739 133.14497944 25.35749657 137 26 C137 26.66 137 27.32 137 28 C137.75925781 27.98839844 138.51851562 27.97679688 139.30078125 27.96484375 C140.29464844 27.95582031 141.28851563 27.94679688 142.3125 27.9375 C143.29863281 27.92589844 144.28476563 27.91429688 145.30078125 27.90234375 C148 28 148 28 151 29 C151 29.66 151 30.32 151 31 C156.28 31.33 161.56 31.66 167 32 C167 32.66 167 33.32 167 34 C168.13888672 33.98259766 168.13888672 33.98259766 169.30078125 33.96484375 C170.79158203 33.95130859 170.79158203 33.95130859 172.3125 33.9375 C173.79169922 33.92009766 173.79169922 33.92009766 175.30078125 33.90234375 C178 34 178 34 181 35 C181 35.66 181 36.32 181 37 C186.28 37.33 191.56 37.66 197 38 C197 38.66 197 39.32 197 40 C200.96 40.33 204.92 40.66 209 41 C209 41.66 209 42.32 209 43 C214.94 43.33 220.88 43.66 227 44 C227 44.66 227 45.32 227 46 C230.96 46.33 234.92 46.66 239 47 C239 47.66 239 48.32 239 49 C240.258125 48.979375 241.51625 48.95875 242.8125 48.9375 C248.24514947 48.92884928 253.60104876 49.43487613 259 50 C259 50.66 259 51.32 259 52 C262.3 52.33 265.6 52.66 269 53 C269 53.66 269 54.32 269 55 C269.75925781 54.98839844 270.51851563 54.97679687 271.30078125 54.96484375 C272.79158203 54.95130859 272.79158203 54.95130859 274.3125 54.9375 C275.79169922 54.92009766 275.79169922 54.92009766 277.30078125 54.90234375 C280 55 280 55 283 56 C283 56.66 283 57.32 283 58 C287.95 58.33 292.9 58.66 298 59 C298 59.66 298 60.32 298 61 C298.99580078 60.98259766 298.99580078 60.98259766 300.01171875 60.96484375 C308.78207381 60.87521968 308.78207381 60.87521968 313 62 C313 62.66 313 63.32 313 64 C318.28 64.33 323.56 64.66 329 65 C329 65.66 329 66.32 329 67 C329.61488281 66.98839844 330.22976563 66.97679688 330.86328125 66.96484375 C331.67152344 66.95582031 332.47976563 66.94679688 333.3125 66.9375 C334.51326172 66.92009766 334.51326172 66.92009766 335.73828125 66.90234375 C338 67 338 67 341 68 C341 68.66 341 69.32 341 70 C342.299375 69.979375 343.59875 69.95875 344.9375 69.9375 C349.69382325 69.92995028 354.28388953 70.40112883 359 71 C359 71.66 359 72.32 359 73 C364.94 73.495 364.94 73.495 371 74 C371 74.66 371 75.32 371 76 C372.299375 75.979375 373.59875 75.95875 374.9375 75.9375 C379.69382325 75.92995028 384.28388953 76.40112883 389 77 C389 77.66 389 78.32 389 79 C392.63 79.33 396.26 79.66 400 80 C400 80.66 400 81.32 400 82 C400.66386719 81.98839844 401.32773437 81.97679688 402.01171875 81.96484375 C410.78207381 81.87521968 410.78207381 81.87521968 415 83 C415 83.66 415 84.32 415 85 C419.95 85.33 424.9 85.66 430 86 C430 86.66 430 87.32 430 88 C430.68707031 87.98839844 431.37414062 87.97679688 432.08203125 87.96484375 C432.98308594 87.95582031 433.88414062 87.94679688 434.8125 87.9375 C435.70582031 87.92589844 436.59914063 87.91429688 437.51953125 87.90234375 C440 88 440 88 443 89 C443 89.66 443 90.32 443 91 C448.94 91.33 454.88 91.66 461 92 C461 92.66 461 93.32 461 94 C464.63 94 468.26 94 472 94 C472.33 94.99 472.66 95.98 473 97 C478.61 97.33 484.22 97.66 490 98 C490 98.66 490 99.32 490 100 C495.94 100.495 495.94 100.495 502 101 C502 101.66 502 102.32 502 103 C503.27875 102.979375 504.5575 102.95875 505.875 102.9375 C510.96207017 102.92941245 515.9516147 103.40979211 521 104 C521 104.66 521 105.32 521 106 C524.63 106.33 528.26 106.66 532 107 C532 107.66 532 108.32 532 109 C532.89138672 108.98259766 532.89138672 108.98259766 533.80078125 108.96484375 C540.25895513 108.89453704 546.57989613 109.31649084 553 110 C553 110.99 553 111.98 553 113 C555.97 113 558.94 113 562 113 C562 113.66 562 114.32 562 115 C562.68707031 114.98839844 563.37414062 114.97679688 564.08203125 114.96484375 C564.98308594 114.95582031 565.88414062 114.94679688 566.8125 114.9375 C567.70582031 114.92589844 568.59914063 114.91429688 569.51953125 114.90234375 C572 115 572 115 575 116 C575 116.66 575 117.32 575 118 C580.61 118.33 586.22 118.66 592 119 C592 119.66 592 120.32 592 121 C592.69867187 120.98839844 593.39734375 120.97679688 594.1171875 120.96484375 C595.02726563 120.95582031 595.93734375 120.94679688 596.875 120.9375 C597.77992188 120.92589844 598.68484375 120.91429688 599.6171875 120.90234375 C602 121 602 121 604 122 C604 122.66 604 123.32 604 124 C609.94 124.33 615.88 124.66 622 125 C622 125.66 622 126.32 622 127 C625.3 127 628.6 127 632 127 C632 127.99 632 128.98 632 130 C632.67804687 129.98839844 633.35609375 129.97679687 634.0546875 129.96484375 C640.44204207 129.90291649 646.65969676 130.22981132 653 131 C653 131.66 653 132.32 653 133 C654.65 133.33 656.3 133.66 658 134 C658 135.98 658 137.96 658 140 C657.34 140 656.68 140 656 140 C655.79503906 140.61488281 655.59007812 141.22976562 655.37890625 141.86328125 C654.25260417 145.2421875 653.12630208 148.62109375 652 152 C651.34 152 650.68 152 650 152 C649.67 153.98 649.34 155.96 649 158 C648.34 158 647.68 158 647 158 C646.67 160.31 646.34 162.62 646 165 C645.01 165.33 644.02 165.66 643 166 C643 167.32 643 168.64 643 170 C642.34 170 641.68 170 641 170 C640.84724609 170.81210937 640.84724609 170.81210937 640.69140625 171.640625 C639.82242393 174.60596581 638.44527709 177.05524946 636.9375 179.75 C636.38964844 180.73484375 635.84179688 181.7196875 635.27734375 182.734375 C634.64505859 183.85585938 634.64505859 183.85585938 634 185 C633.34 185 632.68 185 632 185 C631.896875 186.051875 631.79375 187.10375 631.6875 188.1875 C631.02050668 191.88628113 630.25009992 194.02986811 628 197 C627.34 197 626.68 197 626 197 C625.896875 198.051875 625.79375 199.10375 625.6875 200.1875 C625.02050668 203.88628113 624.25009992 206.02986811 622 209 C621.34 209 620.68 209 620 209 C619.896875 210.051875 619.79375 211.10375 619.6875 212.1875 C619.02050668 215.88628113 618.25009992 218.02986811 616 221 C615.34 221 614.68 221 614 221 C614 222.65 614 224.3 614 226 C613.01 226 612.02 226 611 226 C610.67 228.64 610.34 231.28 610 234 C609.34 234 608.68 234 608 234 C607.67 234.99 607.34 235.98 607 237 C606.34 237 605.68 237 605 237 C604.67 238.98 604.34 240.96 604 243 C603.34 243 602.68 243 602 243 C602 244.65 602 246.3 602 248 C601.01 248.33 600.02 248.66 599 249 C598.87625 250.299375 598.7525 251.59875 598.625 252.9375 C598.4140625 255.15234375 598.4140625 255.15234375 598 257 C597.01 257.495 597.01 257.495 596 258 C595.67 258.99 595.34 259.98 595 261 C594.34 261 593.68 261 593 261 C592.67 263.64 592.34 266.28 592 269 C591.01 269 590.02 269 589 269 C589 270.32 589 271.64 589 273 C588.34 273 587.68 273 587 273 C586.67 275.64 586.34 278.28 586 281 C585.01 281 584.02 281 583 281 C583 282.32 583 283.64 583 285 C582.34 285 581.68 285 581 285 C581 286.65 581 288.3 581 290 C580.01 290 579.02 290 578 290 C577.67 291.98 577.34 293.96 577 296 C576.34 296 575.68 296 575 296 C574.67 297.98 574.34 299.96 574 302 C573.34 302 572.68 302 572 302 C571.67 303.98 571.34 305.96 571 308 C570.34 308 569.68 308 569 308 C568.67 309.98 568.34 311.96 568 314 C567.34 314 566.68 314 566 314 C565.87625 314.969375 565.7525 315.93875 565.625 316.9375 C565.41875 317.948125 565.2125 318.95875 565 320 C564.01 320.495 564.01 320.495 563 321 C562.67 321.99 562.34 322.98 562 324 C561.34 324 560.68 324 560 324 C559.67 326.97 559.34 329.94 559 333 C558.01 333 557.02 333 556 333 C556 333.99 556 334.98 556 336 C555.34 336 554.68 336 554 336 C553.67 338.97 553.34 341.94 553 345 C552.01 345 551.02 345 550 345 C550 345.99 550 346.98 550 348 C549.34 348 548.68 348 548 348 C547.67 349.98 547.34 351.96 547 354 C546.34 354 545.68 354 545 354 C544.67 355.65 544.34 357.3 544 359 C543.34 359 542.68 359 542 359 C541.67 360.98 541.34 362.96 541 365 C540.34 365 539.68 365 539 365 C538.67 367.31 538.34 369.62 538 372 C537.34 372 536.68 372 536 372 C535.67 373.65 535.34 375.3 535 377 C534.34 377 533.68 377 533 377 C532.67 379.31 532.34 381.62 532 384 C531.34 384 530.68 384 530 384 C529.67 385.65 529.34 387.3 529 389 C528.34 389 527.68 389 527 389 C526.67 391.31 526.34 393.62 526 396 C525.01 396 524.02 396 523 396 C523 397.65 523 399.3 523 401 C522.01 401.495 522.01 401.495 521 402 C520.835 402.825 520.67 403.65 520.5 404.5 C520.335 405.325 520.17 406.15 520 407 C519.01 407.495 519.01 407.495 518 408 C517.67 408.99 517.34 409.98 517 411 C516.34 411 515.68 411 515 411 C515 412.65 515 414.3 515 416 C514.01 416 513.02 416 512 416 C511.67 418.31 511.34 420.62 511 423 C510.34 423 509.68 423 509 423 C509 424.65 509 426.3 509 428 C508.01 428 507.02 428 506 428 C505.67 430.31 505.34 432.62 505 435 C504.34 435 503.68 435 503 435 C503 436.65 503 438.3 503 440 C502.01 440.33 501.02 440.66 500 441 C499.67 443.64 499.34 446.28 499 449 C498.01 449 497.02 449 496 449 C496 450.32 496 451.64 496 453 C495.34 453 494.68 453 494 453 C493.67 455.31 493.34 457.62 493 460 C491.5629191 460.05422947 490.12524538 460.09289723 488.6875 460.125 C487.88699219 460.14820313 487.08648437 460.17140625 486.26171875 460.1953125 C484 460 484 460 481 458 C481 457.34 481 456.68 481 456 C479.35 455.67 477.7 455.34 476 455 C476 454.01 476 453.02 476 452 C475.01 452 474.02 452 473 452 C471.63360658 450.3603279 470.3050581 448.68889872 469 447 C468.175 446.34 467.35 445.68 466.5 445 C463.87100457 442.89680365 462.09680365 440.62100457 460 438 C459.175 437.34 458.35 436.68 457.5 436 C455 434 455 434 452.875 431.3125 C451.13879023 428.74752211 451.13879023 428.74752211 448 428 C448 427.34 448 426.68 448 426 C447.01 425.67 446.02 425.34 445 425 C445 424.34 445 423.68 445 423 C444.01 422.67 443.02 422.34 442 422 C442 421.34 442 420.68 442 420 C441.01 419.67 440.02 419.34 439 419 C439 418.34 439 417.68 439 417 C437.35 416.67 435.7 416.34 434 416 C433.67 414.35 433.34 412.7 433 411 C432.01 410.67 431.02 410.34 430 410 C430 409.34 430 408.68 430 408 C429.2575 407.938125 428.515 407.87625 427.75 407.8125 C424.12982633 406.74290323 423.22616102 404.99140387 421 402 C420.175 401.34 419.35 400.68 418.5 400 C415.87044767 397.89635814 414.0470282 395.66113666 412 393 C409.87600133 390.62112149 409.13402591 390.0446753 406 389 C406 388.01 406 387.02 406 386 C405.01 386 404.02 386 403 386 C403 385.34 403 384.68 403 384 C402.01 383.67 401.02 383.34 400 383 C400 382.34 400 381.68 400 381 C399.01 380.67 398.02 380.34 397 380 C397 379.34 397 378.68 397 378 C396.01 377.67 395.02 377.34 394 377 C394 376.34 394 375.68 394 375 C393.01 374.67 392.02 374.34 391 374 C391 373.34 391 372.68 391 372 C390.01 371.67 389.02 371.34 388 371 C388 370.34 388 369.68 388 369 C387.01 368.67 386.02 368.34 385 368 C385 367.34 385 366.68 385 366 C384.2575 365.938125 383.515 365.87625 382.75 365.8125 C379.12982633 364.74290323 378.22616102 362.99140387 376 360 C375.175 359.34 374.35 358.68 373.5 358 C370.87100457 355.89680365 369.09680365 353.62100457 367 351 C365.35704805 349.63755204 363.69175663 348.30135125 362 347 C360.1875 345.375 360.1875 345.375 359 344 C359 343.34 359 342.68 359 342 C357.68 341.67 356.36 341.34 355 341 C355 340.34 355 339.68 355 339 C354.01 338.67 353.02 338.34 352 338 C352 337.34 352 336.68 352 336 C351.01 335.67 350.02 335.34 349 335 C349 334.34 349 333.68 349 333 C348.01 332.67 347.02 332.34 346 332 C346 331.34 346 330.68 346 330 C345.01 329.67 344.02 329.34 343 329 C343 328.34 343 327.68 343 327 C342.01 326.67 341.02 326.34 340 326 C340 325.34 340 324.68 340 324 C338.35 323.67 336.7 323.34 335 323 C335 322.01 335 321.02 335 320 C334.01 320 333.02 320 332 320 C330.63360658 318.3603279 329.3050581 316.68889872 328 315 C327.175 314.34 326.35 313.68 325.5 313 C322.87100457 310.89680365 321.09680365 308.62100457 319 306 C318.175 305.34 317.35 304.68 316.5 304 C313.87100457 301.89680365 312.09680365 299.62100457 310 297 C308.34466005 295.65263027 306.67987227 294.31665664 305 293 C304.67 292.34 304.34 291.68 304 291 C303.01 290.67 302.02 290.34 301 290 C301 289.34 301 288.68 301 288 C300.01 287.67 299.02 287.34 298 287 C298 286.34 298 285.68 298 285 C297.01 284.67 296.02 284.34 295 284 C295 283.34 295 282.68 295 282 C294.01 281.67 293.02 281.34 292 281 C292 280.34 292 279.68 292 279 C291.01 278.67 290.02 278.34 289 278 C289 277.34 289 276.68 289 276 C288.01 275.67 287.02 275.34 286 275 C286 274.34 286 273.68 286 273 C285.01 272.67 284.02 272.34 283 272 C283 271.34 283 270.68 283 270 C282.01 269.67 281.02 269.34 280 269 C280 268.34 280 267.68 280 267 C279.01 266.67 278.02 266.34 277 266 C277 265.34 277 264.68 277 264 C276.01 263.67 275.02 263.34 274 263 C274 262.34 274 261.68 274 261 C273.2575 260.938125 272.515 260.87625 271.75 260.8125 C268.12982633 259.74290323 267.22616102 257.99140387 265 255 C263.7625 254.01 263.7625 254.01 262.5 253 C259.87100457 250.89680365 258.09680365 248.62100457 256 246 C254.35704805 244.63755204 252.69175663 243.30135125 251 242 C249.1875 240.375 249.1875 240.375 248 239 C248 238.34 248 237.68 248 237 C246.68 236.67 245.36 236.34 244 236 C244 235.34 244 234.68 244 234 C243.01 233.67 242.02 233.34 241 233 C241 232.34 241 231.68 241 231 C240.195625 230.71125 239.39125 230.4225 238.5625 230.125 C236 229 236 229 235 227 C234.01 226.67 233.02 226.34 232 226 C232 225.34 232 224.68 232 224 C231.34 224 230.68 224 230 224 C230 223.01 230 222.02 230 221 C228.68 220.67 227.36 220.34 226 220 C226 219.34 226 218.68 226 218 C225.34 218 224.68 218 224 218 C224 217.01 224 216.02 224 215 C222.68 214.67 221.36 214.34 220 214 C220 213.34 220 212.68 220 212 C219.01 211.67 218.02 211.34 217 211 C217 210.34 217 209.68 217 209 C216.01 208.67 215.02 208.34 214 208 C214 207.34 214 206.68 214 206 C213.01 205.67 212.02 205.34 211 205 C211 204.34 211 203.68 211 203 C210.01 202.67 209.02 202.34 208 202 C208 201.34 208 200.68 208 200 C207.01 199.67 206.02 199.34 205 199 C205 198.34 205 197.68 205 197 C204.01 196.67 203.02 196.34 202 196 C202 195.34 202 194.68 202 194 C201.2575 193.938125 200.515 193.87625 199.75 193.8125 C196.12982633 192.74290323 195.22616102 190.99140387 193 188 C192.175 187.34 191.35 186.68 190.5 186 C187.87100457 183.89680365 186.09680365 181.62100457 184 179 C183.175 178.34 182.35 177.68 181.5 177 C178.87100457 174.89680365 177.09680365 172.62100457 175 170 C173.35704805 168.63755204 171.69175663 167.30135125 170 166 C168.1875 164.375 168.1875 164.375 167 163 C167 162.34 167 161.68 167 161 C165.68 160.67 164.36 160.34 163 160 C163 159.34 163 158.68 163 158 C162.01 158 161.02 158 160 158 C160 157.01 160 156.02 160 155 C159.01 154.67 158.02 154.34 157 154 C157 153.34 157 152.68 157 152 C156.01 151.67 155.02 151.34 154 151 C154 150.34 154 149.68 154 149 C152.35 148.67 150.7 148.34 149 148 C148.67 146.35 148.34 144.7 148 143 C146.35 142.67 144.7 142.34 143 142 C143 141.01 143 140.02 143 139 C142.01 139 141.02 139 140 139 C140 138.01 140 137.02 140 136 C139.01 136 138.02 136 137 136 C135 133.6875 135 133.6875 133 131 C130.87600133 128.62112149 130.13402591 128.0446753 127 127 C127 126.34 127 125.68 127 125 C125.515 124.505 125.515 124.505 124 124 C124 123.34 124 122.68 124 122 C122.515 121.505 122.515 121.505 121 121 C121 120.34 121 119.68 121 119 C119.515 118.505 119.515 118.505 118 118 C118 117.34 118 116.68 118 116 C116.515 115.505 116.515 115.505 115 115 C115 114.01 115 113.02 115 112 C114.01 112 113.02 112 112 112 C112 111.34 112 110.68 112 110 C110.515 109.505 110.515 109.505 109 109 C109 108.34 109 107.68 109 107 C107.515 106.505 107.515 106.505 106 106 C106 105.34 106 104.68 106 104 C104.515 103.505 104.515 103.505 103 103 C103 102.34 103 101.68 103 101 C101.515 100.505 101.515 100.505 100 100 C100 99.34 100 98.68 100 98 C98.515 97.505 98.515 97.505 97 97 C97 96.34 97 95.68 97 95 C96.2575 94.938125 95.515 94.87625 94.75 94.8125 C91.12982633 93.74290323 90.22616102 91.99140387 88 89 C87.175 88.34 86.35 87.68 85.5 87 C82.87100457 84.89680365 81.09680365 82.62100457 79 80 C78.175 79.34 77.35 78.68 76.5 78 C73.87100457 75.89680365 72.09680365 73.62100457 70 71 C68.35704805 69.63755204 66.69175663 68.30135125 65 67 C63.1875 65.375 63.1875 65.375 62 64 C62 63.34 62 62.68 62 62 C59.03 61.505 59.03 61.505 56 61 C55.67 59.35 55.34 57.7 55 56 C53.35 55.67 51.7 55.34 50 55 C50 54.01 50 53.02 50 52 C49.01 52 48.02 52 47 52 C45.3125 50.6875 45.3125 50.6875 44 49 C44 48.01 44 47.02 44 46 C43.01 46 42.02 46 41 46 C39.3125 44.6875 39.3125 44.6875 38 43 C38 42.01 38 41.02 38 40 C37.01 40 36.02 40 35 40 C33.63360658 38.3603279 32.3050581 36.68889872 31 35 C29.34466005 33.65263027 27.67987227 32.31665664 26 31 C25.67 30.34 25.34 29.68 25 29 C24.01 28.67 23.02 28.34 22 28 C22 27.34 22 26.68 22 26 C21.01 25.67 20.02 25.34 19 25 C19 24.34 19 23.68 19 23 C18.01 22.67 17.02 22.34 16 22 C16 21.34 16 20.68 16 20 C15.01 19.67 14.02 19.34 13 19 C13 18.34 13 17.68 13 17 C12.01 16.67 11.02 16.34 10 16 C10 15.34 10 14.68 10 14 C9.01 13.67 8.02 13.34 7 13 C7 12.34 7 11.68 7 11 C6.01 10.67 5.02 10.34 4 10 C4 9.34 4 8.68 4 8 C3.01 7.67 2.02 7.34 1 7 C0.67 4.69 0.34 2.38 0 0 Z " fill="#FE00DC" transform="translate(0,0)"/>
<path d="M0 0 C2.475 0.99 2.475 0.99 5 2 C5 2.66 5 3.32 5 4 C5.66 4 6.32 4 7 4 C8.16412793 5.12988888 9.32168283 6.26732946 10.4453125 7.4375 C14.24343415 11.25470769 18.36987981 14.7868873 22.6875 18 C25.23871794 20.20645876 26.93350581 22.52061782 28.7890625 25.31640625 C29.9740889 27.06992565 29.9740889 27.06992565 31.6484375 28.58984375 C33 30 33 30 33 32 C32.34 32 31.68 32 31 32 C29.66104368 30.33784732 28.32869858 28.67036393 27 27 C25.7625 26.01 25.7625 26.01 24.5 25 C21.87044767 22.89635814 20.0470282 20.66113666 18 18 C15.87600133 15.62112149 15.13402591 15.0446753 12 14 C12 13.01 12 12.02 12 11 C11.01 11 10.02 11 9 11 C9 10.34 9 9.68 9 9 C8.01 8.67 7.02 8.34 6 8 C6 7.34 6 6.68 6 6 C5.01 5.67 4.02 5.34 3 5 C3 4.34 3 3.68 3 3 C2.01 2.67 1.02 2.34 0 2 C0 1.34 0 0.68 0 0 Z " fill="#FE18DE" transform="translate(394,375)"/>
<path d="M0 0 C1.32 0.33 2.64 0.66 4 1 C3.34 1 2.68 1 2 1 C1.67 1.99 1.34 2.98 1 4 C0.34 4 -0.32 4 -1 4 C-1.33 4.99 -1.66 5.98 -2 7 C-2.66 7 -3.32 7 -4 7 C-4.33 7.99 -4.66 8.98 -5 10 C-5.99 10 -6.98 10 -8 10 C-8 10.66 -8 11.32 -8 12 C-9.66215268 13.33895632 -11.32963607 14.67130142 -13 16 C-13.99 17.2375 -13.99 17.2375 -15 18.5 C-17.10319635 21.12899543 -19.37899543 22.90319635 -22 25 C-23.0209375 26.3303125 -23.0209375 26.3303125 -24.0625 27.6875 C-26.08708852 30.10394436 -26.93313028 30.67140682 -30 31 C-28.60249952 27.84164893 -26.94801766 25.67727175 -24.5 23.25 C-23.8915625 22.63640625 -23.283125 22.0228125 -22.65625 21.390625 C-21 20 -21 20 -19 20 C-18.67 19.01 -18.34 18.02 -18 17 C-17.34 17 -16.68 17 -16 17 C-15.690625 16.1646875 -15.690625 16.1646875 -15.375 15.3125 C-13.42316968 12.02987629 -11.05769006 10.29326754 -8 8 C-7.34 8 -6.68 8 -6 8 C-6 7.34 -6 6.68 -6 6 C-4.34997172 4.64613064 -2.6825613 3.31321858 -1 2 C-0.67 1.34 -0.34 0.68 0 0 Z " fill="#FF18DE" transform="translate(1489,395)"/>
<path d="M0 0 C1.32 0.33 2.64 0.66 4 1 C4 1.66 4 2.32 4 3 C4.99 3.33 5.98 3.66 7 4 C7 4.66 7 5.32 7 6 C7.99 6.33 8.98 6.66 10 7 C10 7.66 10 8.32 10 9 C10.721875 9.185625 11.44375 9.37125 12.1875 9.5625 C15.55144747 11.28185093 16.78317629 13.12956584 18.7890625 16.24609375 C19.96230241 18.06763062 19.96230241 18.06763062 21.6484375 19.59765625 C23 21 23 21 23 23 C22.34 23 21.68 23 21 23 C19.66104368 21.33784732 18.32869858 19.67036393 17 18 C16.175 17.34 15.35 16.68 14.5 16 C11.87100457 13.89680365 10.09680365 11.62100457 8 9 C6.35704805 7.63755204 4.69175663 6.30135125 3 5 C1.1875 3.375 1.1875 3.375 0 2 C0 1.34 0 0.68 0 0 Z " fill="#FE20DF" transform="translate(311,297)"/>
<path d="M0 0 C0 0.66 0 1.32 0 2 C-1.65002828 3.35386936 -3.3174387 4.68678142 -5 6 C-5.33 6.66 -5.66 7.32 -6 8 C-8.5625 8.625 -8.5625 8.625 -11 9 C-11.33 9.99 -11.66 10.98 -12 12 C-12.66 12 -13.32 12 -14 12 C-14.33 12.99 -14.66 13.98 -15 15 C-15.66 15 -16.32 15 -17 15 C-17.33 15.99 -17.66 16.98 -18 18 C-18.66 18 -19.32 18 -20 18 C-20.33 18.99 -20.66 19.98 -21 21 C-21.99 21 -22.98 21 -24 21 C-24 20.34 -24 19.68 -24 19 C-22.35648543 17.63823078 -20.68477344 16.31037934 -19 15 C-16.29046625 12.41649107 -14.07904656 10.11856984 -12 7 C-10.33720673 5.9935725 -8.67016516 4.99414593 -7 4 C-6.29875 3.278125 -5.5975 2.55625 -4.875 1.8125 C-3 0 -3 0 0 0 Z " fill="#FE17DE" transform="translate(1517,372)"/>
<path d="M0 0 C0.66 0 1.32 0 2 0 C2.33 1.32 2.66 2.64 3 4 C3.99 4 4.98 4 6 4 C6 4.66 6 5.32 6 6 C6.66 6 7.32 6 8 6 C9.33895632 7.66215268 10.67130142 9.32963607 12 11 C12.886875 11.680625 13.77375 12.36125 14.6875 13.0625 C17.10394436 15.08708852 17.67140682 15.93313028 18 19 C14.93313028 18.67140682 14.08708852 18.10394436 12.0625 15.6875 C11.381875 14.800625 10.70125 13.91375 10 13 C9.175 12.34 8.35 11.68 7.5 11 C4.88165568 8.90532454 3.06064235 6.62909541 1 4 C0.34 3.67 -0.32 3.34 -1 3 C-0.67 2.01 -0.34 1.02 0 0 Z " fill="#FE2DE4" transform="translate(180,172)"/>
<path d="M0 0 C5.56958834 1.17818215 7.70508477 2.42963371 11 7 C12.06135226 7.92176995 13.14579636 8.81752138 14.25 9.6875 C15.1575 10.450625 16.065 11.21375 17 12 C17 12.66 17 13.32 17 14 C17.66 14 18.32 14 19 14 C19 14.99 19 15.98 19 17 C18.01 17 17.02 17 16 17 C14.63360658 15.3603279 13.3050581 13.68889872 12 12 C10.34466005 10.65263027 8.67987227 9.31665664 7 8 C6.67 7.34 6.34 6.68 6 6 C5.01 5.67 4.02 5.34 3 5 C3 4.34 3 3.68 3 3 C2.01 2.67 1.02 2.34 0 2 C0 1.34 0 0.68 0 0 Z " fill="#FF3AE2" transform="translate(19,23)"/>
<path d="M0 0 C4.25742137 0.47304682 6.25705098 2.8863822 9 6 C9.33 6.99 9.66 7.98 10 9 C10.99 9.33 11.98 9.66 13 10 C14.34423339 11.65788785 15.67618483 13.32576317 17 15 C17.886875 15.680625 18.77375 16.36125 19.6875 17.0625 C22.10394436 19.08708852 22.67140682 19.93313028 23 23 C22.34 23 21.68 23 21 23 C19.66104368 21.33784732 18.32869858 19.67036393 17 18 C16.175 17.34 15.35 16.68 14.5 16 C11.87100457 13.89680365 10.09680365 11.62100457 8 9 C6.35704805 7.63755204 4.69175663 6.30135125 3 5 C1.1875 3.375 1.1875 3.375 0 2 C0 1.34 0 0.68 0 0 Z " fill="#FE38E3" transform="translate(359,342)"/>
<path d="M0 0 C0.66 0 1.32 0 2 0 C1.67 1.65 1.34 3.3 1 5 C0.34 5 -0.32 5 -1 5 C-1.33 6.98 -1.66 8.96 -2 11 C-2.66 11 -3.32 11 -4 11 C-4.33 12.98 -4.66 14.96 -5 17 C-5.66 17 -6.32 17 -7 17 C-7.33 18.98 -7.66 20.96 -8 23 C-9.32 23.33 -10.64 23.66 -12 24 C-11.67 22.35 -11.34 20.7 -11 19 C-10.34 19 -9.68 19 -9 19 C-8.67 17.68 -8.34 16.36 -8 15 C-7.34 15 -6.68 15 -6 15 C-5.67 12.69 -5.34 10.38 -5 8 C-4.34 8 -3.68 8 -3 8 C-2.67 6.35 -2.34 4.7 -2 3 C-1.34 3 -0.68 3 0 3 C0 2.01 0 1.02 0 0 Z " fill="#FE4FE6" transform="translate(573,297)"/>
<path d="M0 0 C1.32 0.33 2.64 0.66 4 1 C4 1.66 4 2.32 4 3 C4.99 3.33 5.98 3.66 7 4 C7 4.66 7 5.32 7 6 C7.99 6.33 8.98 6.66 10 7 C10 7.66 10 8.32 10 9 C10.99 9.33 11.98 9.66 13 10 C14.02019573 10.9793879 15.02149805 11.97895449 16 13 C16.66 13.33 17.32 13.66 18 14 C18 14.99 18 15.98 18 17 C16.68 16.67 15.36 16.34 14 16 C14 15.34 14 14.68 14 14 C13.01 13.67 12.02 13.34 11 13 C11 12.34 11 11.68 11 11 C10.01 10.67 9.02 10.34 8 10 C8 9.34 8 8.68 8 8 C7.01 7.67 6.02 7.34 5 7 C5 6.34 5 5.68 5 5 C4.01 4.67 3.02 4.34 2 4 C2 3.34 2 2.68 2 2 C1.34 2 0.68 2 0 2 C0 1.34 0 0.68 0 0 Z " fill="#FF2DE0" transform="translate(206,198)"/>
<path d="M0 0 C-0.33 0.99 -0.66 1.98 -1 3 C-1.66 3 -2.32 3 -3 3 C-3.33 3.99 -3.66 4.98 -4 6 C-4.66 6 -5.32 6 -6 6 C-6.33 6.99 -6.66 7.98 -7 9 C-7.66 9 -8.32 9 -9 9 C-9.33 9.99 -9.66 10.98 -10 12 C-10.66 12 -11.32 12 -12 12 C-12.33 12.99 -12.66 13.98 -13 15 C-13.66 15 -14.32 15 -15 15 C-14.67 13.68 -14.34 12.36 -14 11 C-13.34 11 -12.68 11 -12 11 C-11.34 9.68 -10.68 8.36 -10 7 C-9.34 7 -8.68 7 -8 7 C-7.67 6.01 -7.34 5.02 -7 4 C-6.34 4 -5.68 4 -5 4 C-4.67 3.01 -4.34 2.02 -4 1 C-2 0 -2 0 0 0 Z " fill="#FF38E1" transform="translate(1722,179)"/>
<path d="M0 0 C2.64 0 5.28 0 8 0 C8 0.66 8 1.32 8 2 C11.63 2 15.26 2 19 2 C19.33 2.99 19.66 3.98 20 5 C17.03935741 4.74580341 14.08269655 4.47249807 11.125 4.1875 C10.28324219 4.11724609 9.44148438 4.04699219 8.57421875 3.97460938 C7.76855469 3.89404297 6.96289062 3.81347656 6.1328125 3.73046875 C5.38918457 3.66239014 4.64555664 3.59431152 3.87939453 3.52416992 C2 3 2 3 0 0 Z " fill="#FE28E0" transform="translate(453,92)"/>
<path d="M0 0 C2.475 0.99 2.475 0.99 5 2 C5 2.66 5 3.32 5 4 C5.556875 4.20625 6.11375 4.4125 6.6875 4.625 C8.94696811 5.96846753 9.9998656 7.05157702 11.625 9.0625 C13.67119397 12.00824713 13.67119397 12.00824713 16 13 C16 13.66 16 14.32 16 15 C12.93313028 14.67140682 12.08708852 14.10394436 10.0625 11.6875 C9.381875 10.800625 8.70125 9.91375 8 9 C6.35704805 7.63755204 4.69175663 6.30135125 3 5 C1.1875 3.375 1.1875 3.375 0 2 C0 1.34 0 0.68 0 0 Z " fill="#FE28E0" transform="translate(455,432)"/>
<path d="M0 0 C-0.32859318 3.06686972 -0.89605564 3.91291148 -3.3125 5.9375 C-4.199375 6.618125 -5.08625 7.29875 -6 8 C-7.36244796 9.64295195 -8.69864875 11.30824337 -10 13 C-11.625 14.8125 -11.625 14.8125 -13 16 C-13.66 16 -14.32 16 -15 16 C-13.82744291 12.66272214 -12.81131596 10.22562513 -10 8 C-9.34 8 -8.68 8 -8 8 C-7.7525 7.4225 -7.505 6.845 -7.25 6.25 C-5.58207452 3.24773413 -3.67725381 0 0 0 Z " fill="#FE2DE1" transform="translate(1578,313)"/>
<path d="M0 0 C2.64 0 5.28 0 8 0 C6 3 6 3 4.12060547 3.52416992 C3.37697754 3.59224854 2.63334961 3.66032715 1.8671875 3.73046875 C1.06152344 3.81103516 0.25585938 3.89160156 -0.57421875 3.97460938 C-1.83685547 4.07999023 -1.83685547 4.07999023 -3.125 4.1875 C-4.39923828 4.3102832 -4.39923828 4.3102832 -5.69921875 4.43554688 C-7.7983384 4.63602459 -9.89905824 4.81961611 -12 5 C-12 4.34 -12 3.68 -12 3 C-7.9472484 2.01751476 -4.16138263 1.91840426 0 2 C0 1.34 0 0.68 0 0 Z " fill="#FE11DF" transform="translate(1578,65)"/>
<path d="M0 0 C0.99 0 1.98 0 3 0 C3 0.99 3 1.98 3 3 C3.66 3 4.32 3 5 3 C5.67408308 4.26691507 6.33900497 5.53870749 7 6.8125 C7.556875 7.87404297 7.556875 7.87404297 8.125 8.95703125 C9 11 9 11 9 14 C8.01 14 7.02 14 6 14 C5.67 12.02 5.34 10.04 5 8 C4.34 8 3.68 8 3 8 C2.67 7.01 2.34 6.02 2 5 C1.34 4.67 0.68 4.34 0 4 C0 2.68 0 1.36 0 0 Z " fill="#FE3AE3" transform="translate(1356,343)"/>
<path d="M0 0 C3.01921553 0.32348738 3.8923454 0.87081448 5.875 3.25 C6.57625 4.1575 7.2775 5.065 8 6 C9.04448468 6.87610428 10.10780168 7.73017886 11.1875 8.5625 C14.75197889 11.65171504 14.75197889 11.65171504 15 15 C14.01 14.67 13.02 14.34 12 14 C12 13.34 12 12.68 12 12 C11.01 11.67 10.02 11.34 9 11 C9 10.34 9 9.68 9 9 C8.01 8.67 7.02 8.34 6 8 C6 7.34 6 6.68 6 6 C5.01 5.67 4.02 5.34 3 5 C3 4.34 3 3.68 3 3 C2.01 2.67 1.02 2.34 0 2 C0 1.34 0 0.68 0 0 Z " fill="#FF26E0" transform="translate(286,273)"/>
<path d="M0 0 C-0.32859318 3.06686972 -0.89605564 3.91291148 -3.3125 5.9375 C-4.199375 6.618125 -5.08625 7.29875 -6 8 C-7.0209375 9.3303125 -7.0209375 9.3303125 -8.0625 10.6875 C-10.08708852 13.10394436 -10.93313028 13.67140682 -14 14 C-14 13.34 -14 12.68 -14 12 C-13.34 12 -12.68 12 -12 12 C-11.62875 11.14148438 -11.62875 11.14148438 -11.25 10.265625 C-9.80683801 7.64989389 -8.11783778 5.85226544 -6 3.75 C-5.29875 3.04359375 -4.5975 2.3371875 -3.875 1.609375 C-2 0 -2 0 0 0 Z " fill="#FE32E1" transform="translate(1794,111)"/>
<path d="M0 0 C0.66 0.66 1.32 1.32 2 2 C1.34 2 0.68 2 0 2 C-0.33 2.99 -0.66 3.98 -1 5 C-1.66 5 -2.32 5 -3 5 C-3.33 5.99 -3.66 6.98 -4 8 C-4.66 8 -5.32 8 -6 8 C-6.33 8.99 -6.66 9.98 -7 11 C-7.66 11 -8.32 11 -9 11 C-9.33 11.99 -9.66 12.98 -10 14 C-10.66 14 -11.32 14 -12 14 C-12 14.66 -12 15.32 -12 16 C-12.66 16 -13.32 16 -14 16 C-14 13 -14 13 -12.4609375 11.38671875 C-11.77257813 10.82597656 -11.08421875 10.26523438 -10.375 9.6875 C-6.7083062 6.62104789 -3.33703776 3.4204637 0 0 Z " fill="#FF28E1" transform="translate(1650,244)"/>
<path d="M0 0 C1.32 0.33 2.64 0.66 4 1 C4 1.66 4 2.32 4 3 C4.99 3.33 5.98 3.66 7 4 C7 4.66 7 5.32 7 6 C7.99 6.33 8.98 6.66 10 7 C10 7.66 10 8.32 10 9 C10.99 9.33 11.98 9.66 13 10 C13 10.99 13 11.98 13 13 C12.34 13 11.68 13 11 13 C11 12.34 11 11.68 11 11 C10.01 10.67 9.02 10.34 8 10 C8 9.34 8 8.68 8 8 C7.01 7.67 6.02 7.34 5 7 C5 6.34 5 5.68 5 5 C4.01 4.67 3.02 4.34 2 4 C2 3.34 2 2.68 2 2 C1.34 2 0.68 2 0 2 C0 1.34 0 0.68 0 0 Z " fill="#FF2DE1" transform="translate(101,99)"/>
<path d="M0 0 C0.99 0 1.98 0 3 0 C3 0.66 3 1.32 3 2 C2.34 2 1.68 2 1 2 C0.67 2.99 0.34 3.98 0 5 C-0.66 5 -1.32 5 -2 5 C-2.33 5.99 -2.66 6.98 -3 8 C-3.66 8 -4.32 8 -5 8 C-5.33 8.99 -5.66 9.98 -6 11 C-6.66 11 -7.32 11 -8 11 C-8 11.66 -8 12.32 -8 13 C-8.66 13 -9.32 13 -10 13 C-10 10 -10 10 -8.125 7.8125 C-6 6 -6 6 -4 6 C-3.67 5.01 -3.34 4.02 -3 3 C-2.34 3 -1.68 3 -1 3 C-0.67 2.01 -0.34 1.02 0 0 Z " fill="#FF34E2" transform="translate(1862,45)"/>
<path d="M0 0 C0 0.66 0 1.32 0 2 C-1.66215268 3.33895632 -3.32963607 4.67130142 -5 6 C-6.0209375 7.3303125 -6.0209375 7.3303125 -7.0625 8.6875 C-9.08708852 11.10394436 -9.93313028 11.67140682 -13 12 C-11.53424802 8.62801098 -9.64818479 6.35012996 -7.0625 3.75 C-6.37285156 3.04359375 -5.68320313 2.3371875 -4.97265625 1.609375 C-3 0 -3 0 0 0 Z " fill="#FE38E1" transform="translate(1889,23)"/>
<path d="M0 0 C2.49361571 1.20381448 4.68143083 2.45428722 7 4 C7 4.66 7 5.32 7 6 C7.598125 6.28875 8.19625 6.5775 8.8125 6.875 C11 8 11 8 14 10 C14 10.66 14 11.32 14 12 C11.525 11.01 11.525 11.01 9 10 C9 9.34 9 8.68 9 8 C7.35 7.67 5.7 7.34 4 7 C4 6.01 4 5.02 4 4 C3.01 4 2.02 4 1 4 C0.67 2.68 0.34 1.36 0 0 Z " fill="#FE23DF" transform="translate(472,448)"/>
<path d="M0 0 C-0.33 0.99 -0.66 1.98 -1 3 C-1.66 3 -2.32 3 -3 3 C-3.33 3.99 -3.66 4.98 -4 6 C-4.66 6 -5.32 6 -6 6 C-6.33 6.99 -6.66 7.98 -7 9 C-7.66 9 -8.32 9 -9 9 C-9.33 9.99 -9.66 10.98 -10 12 C-10.66 12 -11.32 12 -12 12 C-11.34 10.35 -10.68 8.7 -10 7 C-9.34 7 -8.68 7 -8 7 C-7.67 6.01 -7.34 5.02 -7 4 C-6.34 4 -5.68 4 -5 4 C-4.67 3.01 -4.34 2.02 -4 1 C-2 0 -2 0 0 0 Z " fill="#FE2EE1" transform="translate(1818,89)"/>
<path d="M0 0 C5.61 0.33 11.22 0.66 17 1 C17 1.99 17 2.98 17 4 C14.91589342 3.91266027 12.83265331 3.80447722 10.75 3.6875 C9.00976562 3.60048828 9.00976562 3.60048828 7.234375 3.51171875 C4 3 4 3 0 0 Z " fill="#FE34E2" transform="translate(536,109)"/>
<path d="M0 0 C2.64 0 5.28 0 8 0 C8 0.66 8 1.32 8 2 C9.65 2 11.3 2 13 2 C13 2.66 13 3.32 13 4 C8.71 3.67 4.42 3.34 0 3 C0 2.01 0 1.02 0 0 Z " fill="#FE18DE" transform="translate(351,71)"/>
<path d="M0 0 C0 0.66 0 1.32 0 2 C-3.06246747 3.78409802 -5.22079273 4.22880021 -8.75 4.125 C-9.54921875 4.10695313 -10.3484375 4.08890625 -11.171875 4.0703125 C-11.77515625 4.04710937 -12.3784375 4.02390625 -13 4 C-13 3.01 -13 2.02 -13 1 C-11.39602723 0.83147753 -9.7918131 0.66525114 -8.1875 0.5 C-7.29417969 0.4071875 -6.40085937 0.314375 -5.48046875 0.21875 C-3 0 -3 0 0 0 Z " fill="#FF22DF" transform="translate(1692,43)"/>
<path d="M0 0 C0 0.66 0 1.32 0 2 C-0.66 2 -1.32 2 -2 2 C-2.33 2.99 -2.66 3.98 -3 5 C-3.66 5 -4.32 5 -5 5 C-5.33 5.99 -5.66 6.98 -6 8 C-6.66 8 -7.32 8 -8 8 C-8.33 8.99 -8.66 9.98 -9 11 C-9.99 11 -10.98 11 -12 11 C-12 9 -12 9 -10.625 7.375 C-9 6 -9 6 -7 6 C-6.67 5.01 -6.34 4.02 -6 3 C-3.86928565 0.38503239 -3.5167455 0 0 0 Z " fill="#FE48E5" transform="translate(1544,346)"/>
<path d="M0 0 C0.99 0 1.98 0 3 0 C3 0.66 3 1.32 3 2 C3.69867187 1.98839844 4.39734375 1.97679688 5.1171875 1.96484375 C6.02726563 1.95582031 6.93734375 1.94679688 7.875 1.9375 C8.77992188 1.92589844 9.68484375 1.91429688 10.6171875 1.90234375 C13 2 13 2 15 3 C15 3.66 15 4.32 15 5 C13.06215735 4.85879286 11.12473045 4.71187127 9.1875 4.5625 C8.10855469 4.48128906 7.02960937 4.40007812 5.91796875 4.31640625 C3 4 3 4 0 3 C0 2.01 0 1.02 0 0 Z " fill="#FE2FE2" transform="translate(589,119)"/>
<path d="M0 0 C3.3 0 6.6 0 10 0 C10 0.66 10 1.32 10 2 C10.99 2 11.98 2 13 2 C13 2.66 13 3.32 13 4 C11.20793453 3.85915204 9.41635083 3.71216299 7.625 3.5625 C6.62726563 3.48128906 5.62953125 3.40007813 4.6015625 3.31640625 C2 3 2 3 0 2 C0 1.34 0 0.68 0 0 Z " fill="#FF1DDE" transform="translate(249,50)"/>
<path d="M0 0 C0.99 0 1.98 0 3 0 C3 0.66 3 1.32 3 2 C1.33784732 3.33895632 -0.32963607 4.67130142 -2 6 C-2.721875 6.9075 -3.44375 7.815 -4.1875 8.75 C-5.0846875 9.86375 -5.0846875 9.86375 -6 11 C-6.66 11 -7.32 11 -8 11 C-7.75 9.125 -7.75 9.125 -7 7 C-5.67532254 6.3162955 -4.34136367 5.65035814 -3 5 C-1.79117904 2.99983534 -1.79117904 2.99983534 -1 1 C-0.67 0.67 -0.34 0.34 0 0 Z " fill="#FE2CE1" transform="translate(1664,231)"/>
<path d="M0 0 C0.99 0 1.98 0 3 0 C3 0.66 3 1.32 3 2 C1.33784732 3.33895632 -0.32963607 4.67130142 -2 6 C-2.721875 6.9075 -3.44375 7.815 -4.1875 8.75 C-5.0846875 9.86375 -5.0846875 9.86375 -6 11 C-6.66 11 -7.32 11 -8 11 C-6.82744291 7.66272214 -5.81131596 5.22562513 -3 3 C-2.34 3 -1.68 3 -1 3 C-0.67 2.01 -0.34 1.02 0 0 Z " fill="#FE36E2" transform="translate(1619,273)"/>
<path d="M0 0 C0.66 0 1.32 0 2 0 C2.33 1.32 2.66 2.64 3 4 C3.99 4 4.98 4 6 4 C6 4.66 6 5.32 6 6 C6.66 6 7.32 6 8 6 C8.33 7.32 8.66 8.64 9 10 C5.79424013 9.65652573 5.02483241 9.0292146 2.875 6.5 C2.25625 5.675 1.6375 4.85 1 4 C0.34 3.67 -0.32 3.34 -1 3 C-0.67 2.01 -0.34 1.02 0 0 Z " fill="#FE16E1" transform="translate(180,172)"/>
<path d="M0 0 C2.97 0 5.94 0 9 0 C8.67 0.99 8.34 1.98 8 3 C4.7 3.33 1.4 3.66 -2 4 C-2.33 3.34 -2.66 2.68 -3 2 C-2.01 2 -1.02 2 0 2 C0 1.34 0 0.68 0 0 Z " fill="#FE13DE" transform="translate(1518,77)"/>
<path d="M0 0 C3.11920338 0.33420036 3.95474254 0.94788534 6.0625 3.375 C6.701875 4.24125 7.34125 5.1075 8 6 C8.5775 6.556875 9.155 7.11375 9.75 7.6875 C11 9 11 9 11 11 C10.34 11 9.68 11 9 11 C7.66104368 9.33784732 6.32869858 7.67036393 5 6 C4.0925 5.278125 3.185 4.55625 2.25 3.8125 C1.5075 3.214375 0.765 2.61625 0 2 C0 1.34 0 0.68 0 0 Z " fill="#FE59E7" transform="translate(416,396)"/>
<path d="M0 0 C2.475 0.99 2.475 0.99 5 2 C5 2.66 5 3.32 5 4 C5.66 4 6.32 4 7 4 C9.125 5.8125 9.125 5.8125 11 8 C11 8.99 11 9.98 11 11 C10.34 11 9.68 11 9 11 C9 10.34 9 9.68 9 9 C8.01 8.67 7.02 8.34 6 8 C6 7.34 6 6.68 6 6 C5.01 5.67 4.02 5.34 3 5 C3 4.34 3 3.68 3 3 C2.01 2.67 1.02 2.34 0 2 C0 1.34 0 0.68 0 0 Z " fill="#FE45E4" transform="translate(394,375)"/>
<path d="M0 0 C3.11920338 0.33420036 3.95474254 0.94788534 6.0625 3.375 C6.701875 4.24125 7.34125 5.1075 8 6 C8.5775 6.556875 9.155 7.11375 9.75 7.6875 C11 9 11 9 11 11 C10.34 11 9.68 11 9 11 C7.66104368 9.33784732 6.32869858 7.67036393 5 6 C4.0925 5.278125 3.185 4.55625 2.25 3.8125 C1.5075 3.214375 0.765 2.61625 0 2 C0 1.34 0 0.68 0 0 Z " fill="#FE57E7" transform="translate(323,309)"/>
<path d="M0 0 C1.60407328 -0.02708567 3.2082785 -0.04643483 4.8125 -0.0625 C5.70582031 -0.07410156 6.59914063 -0.08570312 7.51953125 -0.09765625 C10 0 10 0 13 1 C13 1.99 13 2.98 13 4 C8.71 3.34 4.42 2.68 0 2 C0 1.34 0 0.68 0 0 Z " fill="#FE22E0" transform="translate(562,115)"/>
<path d="M0 0 C2.97 0 5.94 0 9 0 C9 0.66 9 1.32 9 2 C0.57142857 4.28571429 0.57142857 4.28571429 -4 4 C-4 3.34 -4 2.68 -4 2 C-2.68 2 -1.36 2 0 2 C0 1.34 0 0.68 0 0 Z " fill="#FE2DE1" transform="translate(1356,110)"/>
<path d="M0 0 C0 0.66 0 1.32 0 2 C-1.63604196 3.37073786 -3.30678061 4.70055256 -5 6 C-5.8353125 6.86625 -5.8353125 6.86625 -6.6875 7.75 C-8 9 -8 9 -10 9 C-8.13405729 4.41995879 -5.20913241 0 0 0 Z " fill="#FF3EE4" transform="translate(1469,417)"/>
<path d="M0 0 C0.99 0 1.98 0 3 0 C3 0.66 3 1.32 3 2 C2.34 2 1.68 2 1 2 C0.67 3.98 0.34 5.96 0 8 C-0.66 8 -1.32 8 -2 8 C-2 8.99 -2 9.98 -2 11 C-2.66 11 -3.32 11 -4 11 C-3.49516338 6.65840504 -2.68099266 3.50591348 0 0 Z " fill="#FE38E2" transform="translate(547,346)"/>
<path d="M0 0 C0.99 0 1.98 0 3 0 C3.67408308 1.26691507 4.33900497 2.53870749 5 3.8125 C5.556875 4.87404297 5.556875 4.87404297 6.125 5.95703125 C7 8 7 8 7 11 C6.34 11 5.68 11 5 11 C5 10.01 5 9.02 5 8 C4.34 8 3.68 8 3 8 C2.67 6.02 2.34 4.04 2 2 C1.34 2 0.68 2 0 2 C0 1.34 0 0.68 0 0 Z " fill="#FF44E6" transform="translate(1338,309)"/>
<path d="M0 0 C0.99 0 1.98 0 3 0 C3 0.66 3 1.32 3 2 C2.34 2 1.68 2 1 2 C0.67 4.31 0.34 6.62 0 9 C-0.99 9.33 -1.98 9.66 -3 10 C-3 8.02 -3 6.04 -3 4 C-2.34 4 -1.68 4 -1 4 C-0.67 2.68 -0.34 1.36 0 0 Z " fill="#FE4BE5" transform="translate(646,156)"/>
<path d="M0 0 C3.82352106 1.5577308 6.29205593 3.91595258 9 7 C9 7.99 9 8.98 9 10 C8.34 10 7.68 10 7 10 C5.62926214 8.36395804 4.29944744 6.69321939 3 5 C2.4225 4.443125 1.845 3.88625 1.25 3.3125 C0 2 0 2 0 0 Z " fill="#FE2DDE" transform="translate(130,126)"/>
<path d="M0 0 C2.31 0 4.62 0 7 0 C7 0.66 7 1.32 7 2 C8.32 2 9.64 2 11 2 C11 2.66 11 3.32 11 4 C7.37 3.67 3.74 3.34 0 3 C0 2.01 0 1.02 0 0 Z " fill="#FE17DD" transform="translate(483,98)"/>
<path d="M0 0 C4.16138263 -0.08159574 7.9472484 0.01751476 12 1 C11.67 1.99 11.34 2.98 11 4 C10.29875 3.855625 9.5975 3.71125 8.875 3.5625 C5.92443859 2.98521625 2.96729849 2.48304859 0 2 C0 1.34 0 0.68 0 0 Z " fill="#FE25DF" transform="translate(403,82)"/>
<path d="M0 0 C4.51617599 -0.07654536 8.59085217 -0.10228696 13 1 C12.67 1.99 12.34 2.98 12 4 C6.06 3.01 6.06 3.01 0 2 C0 1.34 0 0.68 0 0 Z " fill="#FE1BDE" transform="translate(300,61)"/>
<path d="M0 0 C0.99 0 1.98 0 3 0 C3 0.66 3 1.32 3 2 C2.34 2 1.68 2 1 2 C0.67 4.64 0.34 7.28 0 10 C-0.99 10 -1.98 10 -3 10 C-3 8.35 -3 6.7 -3 5 C-2.34 5 -1.68 5 -1 5 C-0.67 3.35 -0.34 1.7 0 0 Z " fill="#FE3CE3" transform="translate(586,271)"/>
<path d="M0 0 C0.99 0 1.98 0 3 0 C3.33 1.65 3.66 3.3 4 5 C4.66 5 5.32 5 6 5 C6.33 6.98 6.66 8.96 7 11 C6.34 11 5.68 11 5 11 C5 10.01 5 9.02 5 8 C4.34 8 3.68 8 3 8 C2.67 6.02 2.34 4.04 2 2 C1.34 2 0.68 2 0 2 C0 1.34 0 0.68 0 0 Z " fill="#FF2CE3" transform="translate(1332,297)"/>
<path d="M0 0 C2.97 0 5.94 0 9 0 C9 0.66 9 1.32 9 2 C9.99 2 10.98 2 12 2 C12 2.66 12 3.32 12 4 C11.319375 3.855625 10.63875 3.71125 9.9375 3.5625 C6.63726918 2.93054091 3.32855574 2.45686059 0 2 C0 1.34 0 0.68 0 0 Z " fill="#FE31E1" transform="translate(512,104)"/>
<path d="M0 0 C2.64 0 5.28 0 8 0 C8 0.66 8 1.32 8 2 C3.8803623 3.29243536 0.33168317 4.26252625 -4 4 C-4 3.34 -4 2.68 -4 2 C-2.68 2 -1.36 2 0 2 C0 1.34 0 0.68 0 0 Z " fill="#FE15DD" transform="translate(1710,38)"/>
<path d="M0 0 C1.43739513 -0.02712066 2.87493863 -0.04645067 4.3125 -0.0625 C5.51326172 -0.07990234 5.51326172 -0.07990234 6.73828125 -0.09765625 C9 0 9 0 12 1 C11.67 1.99 11.34 2.98 11 4 C10.34 4 9.68 4 9 4 C9 3.34 9 2.68 9 2 C6.03 2 3.06 2 0 2 C0 1.34 0 0.68 0 0 Z " fill="#FF21DF" transform="translate(169,34)"/>
<path d="M0 0 C1.32 0.33 2.64 0.66 4 1 C3.34 1 2.68 1 2 1 C1.67 1.99 1.34 2.98 1 4 C0.34 4 -0.32 4 -1 4 C-1.33 4.99 -1.66 5.98 -2 7 C-2.66 7 -3.32 7 -4 7 C-4 7.66 -4 8.32 -4 9 C-4.66 9 -5.32 9 -6 9 C-6 8.01 -6 7.02 -6 6 C-4.37064759 4.62131719 -2.70250393 3.28725907 -1 2 C-0.67 1.34 -0.34 0.68 0 0 Z " fill="#FE27E0" transform="translate(1489,395)"/>
<path d="M0 0 C2.64 0 5.28 0 8 0 C8 0.66 8 1.32 8 2 C8.99 2 9.98 2 11 2 C11 2.66 11 3.32 11 4 C10.29875 3.855625 9.5975 3.71125 8.875 3.5625 C5.92443859 2.98521625 2.96729849 2.48304859 0 2 C0 1.34 0 0.68 0 0 Z " fill="#FE28E0" transform="translate(381,77)"/>
<path d="M0 0 C2.97 0 5.94 0 9 0 C8.67 0.99 8.34 1.98 8 3 C5.69 3 3.38 3 1 3 C0.67 2.01 0.34 1.02 0 0 Z " fill="#FE1DE0" transform="translate(1650,50)"/>
<path d="M0 0 C0.99 0 1.98 0 3 0 C3 0.99 3 1.98 3 3 C2.34 3 1.68 3 1 3 C1 4.65 1 6.3 1 8 C-0.32 8.33 -1.64 8.66 -3 9 C-3 8.34 -3 7.68 -3 7 C-2.34 7 -1.68 7 -1 7 C-0.67 4.69 -0.34 2.38 0 0 Z " fill="#FE51E5" transform="translate(502,432)"/>
<path d="M0 0 C0 0.66 0 1.32 0 2 C-1.65002828 3.35386936 -3.3174387 4.68678142 -5 6 C-5.33 6.66 -5.66 7.32 -6 8 C-6.66 8 -7.32 8 -8 8 C-7.32253522 3.25774652 -4.9532836 0 0 0 Z " fill="#FE61E8" transform="translate(1517,372)"/>
<path d="M0 0 C3.78611227 0.54087318 5.55400767 2.11722332 8 5 C8 5.66 8 6.32 8 7 C7.01 6.67 6.02 6.34 5 6 C5 5.34 5 4.68 5 4 C3.35 3.67 1.7 3.34 0 3 C0 2.01 0 1.02 0 0 Z " fill="#FE22DF" transform="translate(335,320)"/>
<path d="M0 0 C3.81936528 1.55603771 6.26044438 3.95604931 9 7 C9 7.66 9 8.32 9 9 C8.01 8.67 7.02 8.34 6 8 C6 7.34 6 6.68 6 6 C5.01 5.67 4.02 5.34 3 5 C3 4.34 3 3.68 3 3 C2.01 2.67 1.02 2.34 0 2 C0 1.34 0 0.68 0 0 Z " fill="#FF61E8" transform="translate(118,116)"/>
<path d="M0 0 C1.258125 -0.020625 2.51625 -0.04125 3.8125 -0.0625 C4.52019531 -0.07410156 5.22789062 -0.08570312 5.95703125 -0.09765625 C8 0 8 0 11 1 C10.67 1.99 10.34 2.98 10 4 C6.7 3.34 3.4 2.68 0 2 C0 1.34 0 0.68 0 0 Z " fill="#FE18DD" transform="translate(432,88)"/>
<path d="M0 0 C2.475 0.495 2.475 0.495 5 1 C5 1.66 5 2.32 5 3 C5.66 3 6.32 3 7 3 C7.33 4.65 7.66 6.3 8 8 C7.34 8 6.68 8 6 8 C4.64613064 6.34997172 3.31321858 4.6825613 2 3 C1.34 2.67 0.68 2.34 0 2 C0 1.34 0 0.68 0 0 Z " fill="#FF26E4" transform="translate(74,74)"/>
<path d="M0 0 C0.99 0 1.98 0 3 0 C3 1.32 3 2.64 3 4 C2.34 4 1.68 4 1 4 C0.67 5.65 0.34 7.3 0 9 C-0.66 9 -1.32 9 -2 9 C-1.34 6.03 -0.68 3.06 0 0 Z " fill="#FE43E3" transform="translate(535,368)"/>
<path d="M0 0 C2.31 0.66 4.62 1.32 7 2 C7.33 3.32 7.66 4.64 8 6 C6.35 5.67 4.7 5.34 3 5 C3 4.34 3 3.68 3 3 C2.01 2.67 1.02 2.34 0 2 C0 1.34 0 0.68 0 0 Z " fill="#FE51E6" transform="translate(19,23)"/>
<path d="M0 0 C1.32 0.33 2.64 0.66 4 1 C4.33 3.31 4.66 5.62 5 8 C4.34 8 3.68 8 3 8 C3 7.01 3 6.02 3 5 C2.34 5 1.68 5 1 5 C0.67 3.35 0.34 1.7 0 0 Z " fill="#FE4EE6" transform="translate(1409,445)"/>
<path d="M0 0 C0.99 0 1.98 0 3 0 C3 0.66 3 1.32 3 2 C1.34997172 3.35386936 -0.3174387 4.68678142 -2 6 C-2.33 6.66 -2.66 7.32 -3 8 C-3.66 8 -4.32 8 -5 8 C-4.67 6.68 -4.34 5.36 -4 4 C-3.34 4 -2.68 4 -2 4 C-1.34 2.68 -0.68 1.36 0 0 Z " fill="#FE45E4" transform="translate(1559,330)"/>
<path d="M0 0 C0.33 0 0.66 0 1 0 C0.67 2.64 0.34 5.28 0 8 C-1.32 8.33 -2.64 8.66 -4 9 C-3.67 7.35 -3.34 5.7 -3 4 C-2.34 4 -1.68 4 -1 4 C-0.67 2.68 -0.34 1.36 0 0 Z " fill="#FE32E2" transform="translate(565,312)"/>
<path d="M0 0 C0.99 0 1.98 0 3 0 C2.75 2.375 2.75 2.375 2 5 C-0.0625 6.3125 -0.0625 6.3125 -2 7 C-1.34 4.69 -0.68 2.38 0 0 Z " fill="#FE45E5" transform="translate(617,211)"/>
<path d="M0 0 C-0.34021964 3.17538332 -1.02466604 4.02276865 -3.4375 6.25 C-6 8 -6 8 -8 8 C-6.48291727 4.46014029 -4.24676932 0 0 0 Z " fill="#FE24E3" transform="translate(1746,156)"/>
<path d="M0 0 C0.99 0 1.98 0 3 0 C3.66 2.97 4.32 5.94 5 9 C4.34 9 3.68 9 3 9 C2.67 7.02 2.34 5.04 2 3 C1.34 3 0.68 3 0 3 C0 2.01 0 1.02 0 0 Z " fill="#FE47E8" transform="translate(1377,383)"/>
<path d="M0 0 C3.17538332 0.34021964 4.02276865 1.02466604 6.25 3.4375 C8 6 8 6 8 8 C7.34 8 6.68 8 6 8 C4.64613064 6.34997172 3.31321858 4.6825613 2 3 C1.34 2.67 0.68 2.34 0 2 C0 1.34 0 0.68 0 0 Z " fill="#FE1ADE" transform="translate(260,249)"/>
<path d="M0 0 C0.66 0 1.32 0 2 0 C3.5625 2.8125 3.5625 2.8125 5 6 C4.67 6.99 4.34 7.98 4 9 C3.67 8.01 3.34 7.02 3 6 C2.34 6 1.68 6 1 6 C0.67 4.02 0.34 2.04 0 0 Z " fill="#FE46E5" transform="translate(1255,148)"/>
<path d="M0 0 C0.99 0 1.98 0 3 0 C3 0.66 3 1.32 3 2 C2.34 2 1.68 2 1 2 C0.67 2.99 0.34 3.98 0 5 C-0.66 5 -1.32 5 -2 5 C-2 5.66 -2 6.32 -2 7 C-2.66 7 -3.32 7 -4 7 C-3.67 5.68 -3.34 4.36 -3 3 C-2.34 3 -1.68 3 -1 3 C-0.67 2.01 -0.34 1.02 0 0 Z " fill="#FE2FE1" transform="translate(1904,6)"/>
<path d="M0 0 C0.99 0 1.98 0 3 0 C3 0.66 3 1.32 3 2 C-1.47058824 6 -1.47058824 6 -4 6 C-2.84826645 3.53199953 -1.95216435 1.95216435 0 0 Z " fill="#FF35E3" transform="translate(1454,429)"/>
<path d="M0 0 C2.375 0.6875 2.375 0.6875 5 2 C6.3125 4.625 6.3125 4.625 7 7 C6.01 6.67 5.02 6.34 4 6 C4 5.34 4 4.68 4 4 C3.01 3.67 2.02 3.34 1 3 C0.67 2.01 0.34 1.02 0 0 Z " fill="#FF1DDF" transform="translate(381,362)"/>
<path d="M0 0 C-0.5590888 3.24271506 -1.4132178 4.93057424 -4 7 C-4.66 7 -5.32 7 -6 7 C-5.37162381 3.35541809 -4.14650034 0 0 0 Z " fill="#FF2FDF" transform="translate(1836,72)"/>
<path d="M0 0 C2.31 0 4.62 0 7 0 C7 0.99 7 1.98 7 3 C4.69 2.67 2.38 2.34 0 2 C0 1.34 0 0.68 0 0 Z " fill="#FE20DF" transform="translate(322,65)"/>
<path d="M0 0 C4.75 1.875 4.75 1.875 7 3 C7 3.66 7 4.32 7 5 C4.03 4.505 4.03 4.505 1 4 C0.67 2.68 0.34 1.36 0 0 Z " fill="#FF48E6" transform="translate(55,57)"/>
<path d="M0 0 C2.64 0 5.28 0 8 0 C8 0.99 8 1.98 8 3 C5.36 2.67 2.72 2.34 0 2 C0 1.34 0 0.68 0 0 Z " fill="#FE24DF" transform="translate(140,28)"/>
<path d="M0 0 C2.475 0.99 2.475 0.99 5 2 C5 2.66 5 3.32 5 4 C5.99 4.33 6.98 4.66 8 5 C7.01 5.33 6.02 5.66 5 6 C2.3125 4.1875 2.3125 4.1875 0 2 C0 1.34 0 0.68 0 0 Z " fill="#FE16DE" transform="translate(455,432)"/>
<path d="M0 0 C0.99 0 1.98 0 3 0 C2.42415568 2.38564077 1.77772405 4.66682784 1 7 C0.34 7 -0.32 7 -1 7 C-0.67 4.69 -0.34 2.38 0 0 Z " fill="#FE46E4" transform="translate(628,189)"/>
<path d="M0 0 C0.99 0 1.98 0 3 0 C4.4606285 2.64738916 5 3.89448334 5 7 C4.34 7 3.68 7 3 7 C2.67 6.01 2.34 5.02 2 4 C1.34 3.67 0.68 3.34 0 3 C0 2.01 0 1.02 0 0 Z " fill="#FE3BE4" transform="translate(1262,163)"/>
<path d="M0 0 C0.99 0 1.98 0 3 0 C3 0.99 3 1.98 3 3 C0.69 3.33 -1.62 3.66 -4 4 C-4 3.34 -4 2.68 -4 2 C-2.68 2 -1.36 2 0 2 C0 1.34 0 0.68 0 0 Z " fill="#FE33E3" transform="translate(1548,71)"/>
<path d="M0 0 C0.66 0 1.32 0 2 0 C1.67 1.98 1.34 3.96 1 6 C0.01 6 -0.98 6 -2 6 C-1.125 1.125 -1.125 1.125 0 0 Z " fill="#FE3CE3" transform="translate(492,454)"/>
<path d="M0 0 C0.99 0 1.98 0 3 0 C3 1.32 3 2.64 3 4 C2.34 4 1.68 4 1 4 C1 4.66 1 5.32 1 6 C0.34 6 -0.32 6 -1 6 C-0.67 4.02 -0.34 2.04 0 0 Z " fill="#FE4CE5" transform="translate(529,380)"/>
<path d="M0 0 C0.66 0 1.32 0 2 0 C1.67 2.31 1.34 4.62 1 7 C0.01 7 -0.98 7 -2 7 C-1.42415568 4.61435923 -0.77772405 2.33317216 0 0 Z " fill="#FE51E6" transform="translate(552,338)"/>
<path d="M0 0 C2.4375 0.75 2.4375 0.75 5 2 C5.8125 4.125 5.8125 4.125 6 6 C5.01 5.67 4.02 5.34 3 5 C3 4.34 3 3.68 3 3 C2.01 2.67 1.02 2.34 0 2 C0 1.34 0 0.68 0 0 Z " fill="#FF57E7" transform="translate(346,330)"/>
<path d="M0 0 C-0.5590888 3.24271506 -1.4132178 4.93057424 -4 7 C-4.66 7 -5.32 7 -6 7 C-5.37162381 3.35541809 -4.14650034 0 0 0 Z " fill="#FE1CE0" transform="translate(1578,313)"/>
<path d="M0 0 C0.99 0 1.98 0 3 0 C3 0.66 3 1.32 3 2 C2.34 2 1.68 2 1 2 C0.67 2.99 0.34 3.98 0 5 C-0.99 5 -1.98 5 -3 5 C-1.125 1.125 -1.125 1.125 0 0 Z " fill="#FE3CE3" transform="translate(607,232)"/>
<path d="M0 0 C0 2 0 2 -1.3125 3.625 C-3 5 -3 5 -6 5 C-6 4.01 -6 3.02 -6 2 C-3 0 -3 0 0 0 Z " fill="#FE33E5" transform="translate(1691,209)"/>
<path d="M0 0 C1.98 0 3.96 0 6 0 C5.67 0.99 5.34 1.98 5 3 C3.35 3 1.7 3 0 3 C0 2.01 0 1.02 0 0 Z " fill="#FE12DD" transform="translate(1551,71)"/>
</svg>
